<mxfile host="app.diagrams.net" modified="2024-04-23T11:07:01.355Z" agent="Mozilla/5.0 (Macintosh; Intel Mac OS X 10_15_7) AppleWebKit/605.1.15 (KHTML, like Gecko) Version/17.4.1 Safari/605.1.15" etag="sAglbLoea7z6AqYbMIaU" version="24.2.7" type="device" pages="2">
  <diagram name="Page-1" id="a8PBiq2PuBhrbPn_pdct">
    <mxGraphModel dx="954" dy="1739" grid="1" gridSize="10" guides="1" tooltips="1" connect="1" arrows="1" fold="1" page="1" pageScale="1" pageWidth="827" pageHeight="1169" math="0" shadow="0">
      <root>
        <mxCell id="0" />
        <mxCell id="1" parent="0" />
        <mxCell id="eLUCA3yf0UrvSS490ggB-15" style="edgeStyle=orthogonalEdgeStyle;rounded=0;orthogonalLoop=1;jettySize=auto;html=1;exitX=0.5;exitY=0;exitDx=0;exitDy=0;entryX=0.5;entryY=1;entryDx=0;entryDy=0;" parent="1" source="eLUCA3yf0UrvSS490ggB-1" target="eLUCA3yf0UrvSS490ggB-6" edge="1">
          <mxGeometry relative="1" as="geometry" />
        </mxCell>
        <mxCell id="eLUCA3yf0UrvSS490ggB-1" value="NFCReader" style="rounded=0;whiteSpace=wrap;html=1;fillColor=#B5B5B5;fontColor=#333333;strokeColor=#666666;" parent="1" vertex="1">
          <mxGeometry x="70" y="190" width="120" height="60" as="geometry" />
        </mxCell>
        <mxCell id="iZR6fErCCVjAmBpc7P7r-27" style="edgeStyle=orthogonalEdgeStyle;rounded=0;orthogonalLoop=1;jettySize=auto;html=1;" edge="1" parent="1" source="eLUCA3yf0UrvSS490ggB-4" target="iZR6fErCCVjAmBpc7P7r-22">
          <mxGeometry relative="1" as="geometry" />
        </mxCell>
        <mxCell id="q01GSPP5ASAMucZU0UoK-16" style="edgeStyle=orthogonalEdgeStyle;rounded=0;orthogonalLoop=1;jettySize=auto;html=1;exitX=0.5;exitY=0;exitDx=0;exitDy=0;entryX=0;entryY=0.5;entryDx=0;entryDy=0;" edge="1" parent="1" source="eLUCA3yf0UrvSS490ggB-4" target="-hziaJPOZp87epf_azLx-7">
          <mxGeometry relative="1" as="geometry" />
        </mxCell>
        <mxCell id="eLUCA3yf0UrvSS490ggB-4" value="RPC node&lt;div&gt;Hardhat&lt;/div&gt;" style="rounded=0;whiteSpace=wrap;html=1;fillColor=#d5e8d4;strokeColor=#82b366;" parent="1" vertex="1">
          <mxGeometry x="620" y="295" width="120" height="60" as="geometry" />
        </mxCell>
        <mxCell id="eLUCA3yf0UrvSS490ggB-6" value="NFC device&lt;div&gt;ACR122U PICC Interface&lt;/div&gt;" style="rounded=0;whiteSpace=wrap;html=1;fillColor=#B5B5B5;fontColor=#333333;strokeColor=#666666;" parent="1" vertex="1">
          <mxGeometry x="70" y="70" width="120" height="60" as="geometry" />
        </mxCell>
        <mxCell id="q01GSPP5ASAMucZU0UoK-13" style="edgeStyle=orthogonalEdgeStyle;rounded=0;orthogonalLoop=1;jettySize=auto;html=1;entryX=0.5;entryY=0;entryDx=0;entryDy=0;" edge="1" parent="1" source="eLUCA3yf0UrvSS490ggB-8" target="eLUCA3yf0UrvSS490ggB-2">
          <mxGeometry relative="1" as="geometry" />
        </mxCell>
        <mxCell id="eLUCA3yf0UrvSS490ggB-8" value="User" style="shape=umlActor;verticalLabelPosition=bottom;verticalAlign=top;html=1;outlineConnect=0;fillColor=#b0e3e6;strokeColor=#0e8088;gradientColor=none;" parent="1" vertex="1">
          <mxGeometry x="442.5" y="-20" width="35" height="60" as="geometry" />
        </mxCell>
        <mxCell id="eLUCA3yf0UrvSS490ggB-20" value="&lt;h1 style=&quot;margin-top: 0px; font-size: 13px;&quot;&gt;&lt;font style=&quot;font-size: 13px;&quot;&gt;Crypto payment&lt;/font&gt;&lt;/h1&gt;&lt;h1 style=&quot;margin-top: 0px; font-size: 13px;&quot;&gt;&lt;span style=&quot;font-weight: normal;&quot;&gt;Effectuer une transaction de payment en ethers (ETH)&amp;nbsp;&lt;/span&gt;&lt;span style=&quot;font-weight: normal;&quot;&gt;à l&#39;aide de l&#39;appareil NFC.&lt;/span&gt;&lt;/h1&gt;&lt;p style=&quot;font-size: 13px;&quot;&gt;&lt;font style=&quot;font-size: 13px;&quot;&gt;Le user autorise un montant donné de ETH à transférer de son wallet au wallet du marchant.&lt;/font&gt;&lt;/p&gt;" style="text;html=1;whiteSpace=wrap;overflow=hidden;rounded=0;" parent="1" vertex="1">
          <mxGeometry x="660" y="-10" width="300" height="110" as="geometry" />
        </mxCell>
        <mxCell id="-hziaJPOZp87epf_azLx-7" value="&lt;b style=&quot;font-size: 16px;&quot;&gt;&lt;font style=&quot;font-size: 16px;&quot;&gt;Transaction&lt;/font&gt;&lt;/b&gt;&lt;div style=&quot;font-size: 16px;&quot;&gt;StoreRelayer.send(fromCustomer, toSeller, amount)&lt;/div&gt;" style="rounded=1;whiteSpace=wrap;html=1;fillColor=#d5e8d4;strokeColor=#82b366;" vertex="1" parent="1">
          <mxGeometry x="730" y="175" width="260" height="115" as="geometry" />
        </mxCell>
        <mxCell id="-hziaJPOZp87epf_azLx-10" value="" style="edgeStyle=orthogonalEdgeStyle;rounded=0;orthogonalLoop=1;jettySize=auto;html=1;" edge="1" parent="1" source="-hziaJPOZp87epf_azLx-9" target="eLUCA3yf0UrvSS490ggB-2">
          <mxGeometry relative="1" as="geometry" />
        </mxCell>
        <mxCell id="q01GSPP5ASAMucZU0UoK-15" style="edgeStyle=orthogonalEdgeStyle;rounded=0;orthogonalLoop=1;jettySize=auto;html=1;entryX=1;entryY=0.5;entryDx=0;entryDy=0;" edge="1" parent="1" source="-hziaJPOZp87epf_azLx-9" target="eLUCA3yf0UrvSS490ggB-1">
          <mxGeometry relative="1" as="geometry" />
        </mxCell>
        <mxCell id="-hziaJPOZp87epf_azLx-9" value="&lt;b&gt;Websocket&lt;/b&gt;" style="ellipse;whiteSpace=wrap;html=1;fillColor=#fff2cc;strokeColor=#d6b656;" vertex="1" parent="1">
          <mxGeometry x="230" y="180" width="120" height="80" as="geometry" />
        </mxCell>
        <mxCell id="iZR6fErCCVjAmBpc7P7r-2" value="Invoice" style="rounded=1;whiteSpace=wrap;html=1;fillColor=#d5e8d4;strokeColor=#82b366;" vertex="1" parent="1">
          <mxGeometry x="880" y="485" width="120" height="60" as="geometry" />
        </mxCell>
        <mxCell id="iZR6fErCCVjAmBpc7P7r-9" value="&lt;h1 style=&quot;margin-top: 0px;&quot;&gt;Factory pattern&lt;/h1&gt;&lt;div&gt;Tokenize the invoice&lt;/div&gt;&lt;div&gt;Smart contract ERC721&lt;/div&gt;" style="text;html=1;whiteSpace=wrap;overflow=hidden;rounded=0;strokeColor=default;" vertex="1" parent="1">
          <mxGeometry x="1040" y="90" width="180" height="90" as="geometry" />
        </mxCell>
        <mxCell id="iZR6fErCCVjAmBpc7P7r-15" value="&lt;h1 style=&quot;margin-top: 0px;&quot;&gt;Access control&lt;/h1&gt;&lt;div&gt;_grantRole&lt;/div&gt;&lt;div&gt;OpenZeppelin Service&lt;/div&gt;" style="text;html=1;whiteSpace=wrap;overflow=hidden;rounded=0;strokeColor=default;" vertex="1" parent="1">
          <mxGeometry x="1040" y="190" width="180" height="80" as="geometry" />
        </mxCell>
        <mxCell id="iZR6fErCCVjAmBpc7P7r-21" value="&lt;font style=&quot;font-size: 15px;&quot;&gt;create NFT&lt;/font&gt;" style="text;html=1;align=center;verticalAlign=middle;whiteSpace=wrap;rounded=0;" vertex="1" parent="1">
          <mxGeometry x="887" y="395" width="60" height="30" as="geometry" />
        </mxCell>
        <mxCell id="iZR6fErCCVjAmBpc7P7r-26" style="edgeStyle=orthogonalEdgeStyle;rounded=0;orthogonalLoop=1;jettySize=auto;html=1;" edge="1" parent="1" source="iZR6fErCCVjAmBpc7P7r-22">
          <mxGeometry relative="1" as="geometry">
            <mxPoint x="940" y="485" as="targetPoint" />
          </mxGeometry>
        </mxCell>
        <mxCell id="iZR6fErCCVjAmBpc7P7r-22" value="FactoryNFT&lt;div&gt;&lt;ul&gt;&lt;li&gt;Factory pattern&lt;br&gt;&lt;/li&gt;&lt;li&gt;Access control&lt;br&gt;&lt;/li&gt;&lt;/ul&gt;&lt;/div&gt;" style="rounded=1;whiteSpace=wrap;html=1;fillColor=#d5e8d4;strokeColor=#82b366;" vertex="1" parent="1">
          <mxGeometry x="690" y="395" width="170" height="75" as="geometry" />
        </mxCell>
        <mxCell id="iZR6fErCCVjAmBpc7P7r-25" value="&lt;h1 style=&quot;margin-top: 0px;&quot;&gt;Manage&lt;/h1&gt;&lt;div&gt;Relayer (StoreRelayer)&lt;/div&gt;&lt;div&gt;OpenZeppelin Service&lt;/div&gt;" style="text;html=1;whiteSpace=wrap;overflow=hidden;rounded=0;strokeColor=default;" vertex="1" parent="1">
          <mxGeometry x="1040" y="280" width="180" height="90" as="geometry" />
        </mxCell>
        <mxCell id="q01GSPP5ASAMucZU0UoK-4" value="NFC" style="swimlane;whiteSpace=wrap;html=1;fillColor=#B5B5B5;" vertex="1" parent="1">
          <mxGeometry x="50" y="30" width="160" height="240" as="geometry" />
        </mxCell>
        <mxCell id="q01GSPP5ASAMucZU0UoK-5" value="Blockchain" style="swimlane;whiteSpace=wrap;html=1;fillColor=#d5e8d4;strokeColor=#82b366;" vertex="1" parent="1">
          <mxGeometry x="610" y="130" width="420" height="425" as="geometry" />
        </mxCell>
        <mxCell id="q01GSPP5ASAMucZU0UoK-6" value="BDD" style="swimlane;whiteSpace=wrap;html=1;fillColor=#f8cecc;strokeColor=#b85450;" vertex="1" parent="1">
          <mxGeometry x="240" y="630" width="430" height="300" as="geometry" />
        </mxCell>
        <mxCell id="eLUCA3yf0UrvSS490ggB-5" value="&lt;b&gt;MongoDB&lt;/b&gt;" style="rounded=0;whiteSpace=wrap;html=1;fillColor=#f8cecc;strokeColor=#b85450;" parent="q01GSPP5ASAMucZU0UoK-6" vertex="1">
          <mxGeometry x="10" y="40" width="410" height="60" as="geometry" />
        </mxCell>
        <mxCell id="eLUCA3yf0UrvSS490ggB-18" value="&lt;h1 style=&quot;margin-top: 0px;&quot;&gt;customer table&lt;/h1&gt;&lt;p&gt;&lt;/p&gt;&lt;ul&gt;&lt;li&gt;id (uint)&lt;/li&gt;&lt;li&gt;username (string)&lt;/li&gt;&lt;li&gt;bills (array of Bill objects)&lt;/li&gt;&lt;/ul&gt;&lt;p&gt;&lt;/p&gt;" style="text;html=1;whiteSpace=wrap;overflow=hidden;rounded=0;fillColor=default;fillStyle=auto;strokeColor=#F8CECC;gradientColor=#F8CECC;" parent="q01GSPP5ASAMucZU0UoK-6" vertex="1">
          <mxGeometry x="10" y="125" width="180" height="120" as="geometry" />
        </mxCell>
        <mxCell id="iZR6fErCCVjAmBpc7P7r-10" value="&lt;h1 style=&quot;margin-top: 0px;&quot;&gt;transaction table&lt;/h1&gt;&lt;div&gt;&lt;ul&gt;&lt;li&gt;from&lt;br&gt;&lt;/li&gt;&lt;li&gt;to&lt;/li&gt;&lt;li&gt;amount&lt;/li&gt;&lt;li&gt;timestamp&lt;/li&gt;&lt;li&gt;transactionFee&lt;/li&gt;&lt;li&gt;transactionHash&lt;/li&gt;&lt;li&gt;network&lt;/li&gt;&lt;/ul&gt;&lt;/div&gt;&lt;p&gt;&lt;/p&gt;" style="text;html=1;whiteSpace=wrap;overflow=hidden;rounded=0;fillColor=default;fillStyle=hatch;strokeColor=#F8CECC;gradientColor=#F8CECC;" vertex="1" parent="q01GSPP5ASAMucZU0UoK-6">
          <mxGeometry x="210" y="110" width="210" height="180" as="geometry" />
        </mxCell>
        <mxCell id="q01GSPP5ASAMucZU0UoK-8" value="Backend" style="swimlane;whiteSpace=wrap;html=1;fillColor=#ffe6cc;strokeColor=#d79b00;" vertex="1" parent="1">
          <mxGeometry x="290" y="370" width="270" height="210" as="geometry" />
        </mxCell>
        <mxCell id="eLUCA3yf0UrvSS490ggB-3" value="Nodejs&lt;div&gt;&lt;br&gt;&lt;/div&gt;&lt;div&gt;&lt;b&gt;StoreRelayer - OpenZeppelin Defender Service&lt;/b&gt;&lt;/div&gt;&lt;div&gt;&lt;ul&gt;&lt;li style=&quot;text-align: left;&quot;&gt;&lt;b&gt;Manage&lt;/b&gt;&lt;/li&gt;&lt;/ul&gt;&lt;/div&gt;" style="rounded=0;whiteSpace=wrap;html=1;fillColor=#ffe6cc;strokeColor=#d79b00;" parent="q01GSPP5ASAMucZU0UoK-8" vertex="1">
          <mxGeometry x="25" y="50" width="150" height="110" as="geometry" />
        </mxCell>
        <mxCell id="eLUCA3yf0UrvSS490ggB-16" value="&lt;h1 style=&quot;margin-top: 0px;&quot;&gt;API&lt;/h1&gt;&lt;p&gt;Créer une requête liste de factures d&#39;un user&lt;/p&gt;" style="text;html=1;whiteSpace=wrap;overflow=hidden;rounded=0;" parent="q01GSPP5ASAMucZU0UoK-8" vertex="1">
          <mxGeometry x="180" y="110" width="80" height="90" as="geometry" />
        </mxCell>
        <mxCell id="q01GSPP5ASAMucZU0UoK-9" value="Frontend" style="swimlane;whiteSpace=wrap;html=1;fillColor=#dae8fc;strokeColor=#6c8ebf;" vertex="1" parent="1">
          <mxGeometry x="370" y="105" width="220" height="190" as="geometry" />
        </mxCell>
        <mxCell id="eLUCA3yf0UrvSS490ggB-17" value="&lt;h1 style=&quot;margin-top: 0px; font-size: 13px;&quot;&gt;&lt;font style=&quot;font-size: 13px;&quot;&gt;ReactComponent&lt;/font&gt;&lt;/h1&gt;&lt;p style=&quot;font-size: 13px;&quot;&gt;&lt;font style=&quot;font-size: 13px;&quot;&gt;Afficher liste de factures à l&#39;aide d&#39;une requête axios&lt;/font&gt;&lt;/p&gt;" style="text;html=1;whiteSpace=wrap;overflow=hidden;rounded=0;" parent="q01GSPP5ASAMucZU0UoK-9" vertex="1">
          <mxGeometry x="30" y="125" width="190" height="75" as="geometry" />
        </mxCell>
        <mxCell id="eLUCA3yf0UrvSS490ggB-2" value="React app" style="rounded=0;whiteSpace=wrap;html=1;fillColor=#dae8fc;strokeColor=#6c8ebf;" parent="q01GSPP5ASAMucZU0UoK-9" vertex="1">
          <mxGeometry x="50" y="55" width="120" height="60" as="geometry" />
        </mxCell>
        <mxCell id="eLUCA3yf0UrvSS490ggB-7" style="edgeStyle=orthogonalEdgeStyle;rounded=0;orthogonalLoop=1;jettySize=auto;html=1;exitX=0.5;exitY=1;exitDx=0;exitDy=0;" parent="q01GSPP5ASAMucZU0UoK-9" source="eLUCA3yf0UrvSS490ggB-2" target="eLUCA3yf0UrvSS490ggB-2" edge="1">
          <mxGeometry relative="1" as="geometry" />
        </mxCell>
        <mxCell id="q01GSPP5ASAMucZU0UoK-11" style="edgeStyle=orthogonalEdgeStyle;rounded=0;orthogonalLoop=1;jettySize=auto;html=1;exitX=0.5;exitY=1;exitDx=0;exitDy=0;" edge="1" parent="1" source="eLUCA3yf0UrvSS490ggB-2" target="eLUCA3yf0UrvSS490ggB-3">
          <mxGeometry relative="1" as="geometry" />
        </mxCell>
        <mxCell id="q01GSPP5ASAMucZU0UoK-12" style="edgeStyle=orthogonalEdgeStyle;rounded=0;orthogonalLoop=1;jettySize=auto;html=1;exitX=1;exitY=0.5;exitDx=0;exitDy=0;entryX=0;entryY=0.5;entryDx=0;entryDy=0;" edge="1" parent="1" source="eLUCA3yf0UrvSS490ggB-3" target="eLUCA3yf0UrvSS490ggB-4">
          <mxGeometry relative="1" as="geometry" />
        </mxCell>
        <mxCell id="q01GSPP5ASAMucZU0UoK-14" style="edgeStyle=orthogonalEdgeStyle;rounded=0;orthogonalLoop=1;jettySize=auto;html=1;entryX=0.341;entryY=0.033;entryDx=0;entryDy=0;entryPerimeter=0;" edge="1" parent="1" source="eLUCA3yf0UrvSS490ggB-3" target="eLUCA3yf0UrvSS490ggB-5">
          <mxGeometry relative="1" as="geometry" />
        </mxCell>
      </root>
    </mxGraphModel>
  </diagram>
  <diagram id="ZWWaTRRNIRdITGDqh24x" name="Page-2">
    <mxGraphModel dx="954" dy="570" grid="1" gridSize="10" guides="1" tooltips="1" connect="1" arrows="1" fold="1" page="1" pageScale="1" pageWidth="827" pageHeight="1169" math="0" shadow="0">
      <root>
        <mxCell id="0" />
        <mxCell id="1" parent="0" />
        <mxCell id="n0rDPUWQO1riLSEUtg_M-9" style="edgeStyle=orthogonalEdgeStyle;rounded=0;orthogonalLoop=1;jettySize=auto;html=1;exitX=1;exitY=0.5;exitDx=0;exitDy=0;" parent="1" source="n0rDPUWQO1riLSEUtg_M-2" target="n0rDPUWQO1riLSEUtg_M-6" edge="1">
          <mxGeometry relative="1" as="geometry" />
        </mxCell>
        <mxCell id="n0rDPUWQO1riLSEUtg_M-2" value="&lt;b&gt;Lecteur NFC&lt;/b&gt;" style="rounded=1;whiteSpace=wrap;html=1;" parent="1" vertex="1">
          <mxGeometry x="250" y="110" width="120" height="60" as="geometry" />
        </mxCell>
        <mxCell id="n0rDPUWQO1riLSEUtg_M-4" style="edgeStyle=orthogonalEdgeStyle;rounded=0;orthogonalLoop=1;jettySize=auto;html=1;" parent="1" source="n0rDPUWQO1riLSEUtg_M-3" target="n0rDPUWQO1riLSEUtg_M-2" edge="1">
          <mxGeometry relative="1" as="geometry" />
        </mxCell>
        <mxCell id="n0rDPUWQO1riLSEUtg_M-3" value="Client" style="shape=umlActor;verticalLabelPosition=bottom;verticalAlign=top;html=1;outlineConnect=0;" parent="1" vertex="1">
          <mxGeometry x="60" y="91" width="30" height="60" as="geometry" />
        </mxCell>
        <mxCell id="n0rDPUWQO1riLSEUtg_M-5" value="&lt;h1 style=&quot;margin-top: 0px;&quot;&gt;&lt;br&gt;&lt;/h1&gt;&lt;div&gt;le client pose sa carte NFC sur le lecteur NFC contenant un identifiant unique que le marchant récupère&lt;/div&gt;" style="text;html=1;whiteSpace=wrap;overflow=hidden;rounded=0;" parent="1" vertex="1">
          <mxGeometry x="101" y="10" width="180" height="120" as="geometry" />
        </mxCell>
        <mxCell id="n0rDPUWQO1riLSEUtg_M-12" style="edgeStyle=orthogonalEdgeStyle;rounded=0;orthogonalLoop=1;jettySize=auto;html=1;" parent="1" source="n0rDPUWQO1riLSEUtg_M-6" target="n0rDPUWQO1riLSEUtg_M-11" edge="1">
          <mxGeometry relative="1" as="geometry" />
        </mxCell>
        <mxCell id="n0rDPUWQO1riLSEUtg_M-17" style="edgeStyle=orthogonalEdgeStyle;rounded=0;orthogonalLoop=1;jettySize=auto;html=1;entryX=0;entryY=0.5;entryDx=0;entryDy=0;" parent="1" source="n0rDPUWQO1riLSEUtg_M-6" target="n0rDPUWQO1riLSEUtg_M-14" edge="1">
          <mxGeometry relative="1" as="geometry" />
        </mxCell>
        <mxCell id="n0rDPUWQO1riLSEUtg_M-6" value="&lt;b&gt;reactapp&lt;/b&gt;&lt;div&gt;interface utilisateur du marchant et du client&lt;/div&gt;" style="rounded=1;whiteSpace=wrap;html=1;" parent="1" vertex="1">
          <mxGeometry x="470" y="110" width="120" height="60" as="geometry" />
        </mxCell>
        <mxCell id="n0rDPUWQO1riLSEUtg_M-10" value="code unique" style="text;html=1;align=center;verticalAlign=middle;whiteSpace=wrap;rounded=0;" parent="1" vertex="1">
          <mxGeometry x="390" y="110" width="60" height="30" as="geometry" />
        </mxCell>
        <mxCell id="n0rDPUWQO1riLSEUtg_M-13" value="page d&#39;accueil du marchant" style="text;html=1;align=center;verticalAlign=middle;whiteSpace=wrap;rounded=0;" parent="1" vertex="1">
          <mxGeometry x="500" y="61" width="60" height="30" as="geometry" />
        </mxCell>
        <mxCell id="n0rDPUWQO1riLSEUtg_M-14" value="&lt;b&gt;backend&lt;/b&gt;&lt;div&gt;- username&lt;/div&gt;&lt;div&gt;- email&lt;/div&gt;&lt;div&gt;- wallet address&lt;/div&gt;" style="rounded=1;whiteSpace=wrap;html=1;" parent="1" vertex="1">
          <mxGeometry x="690" y="110" width="120" height="60" as="geometry" />
        </mxCell>
        <mxCell id="n0rDPUWQO1riLSEUtg_M-16" value="get(code)" style="text;html=1;align=center;verticalAlign=middle;whiteSpace=wrap;rounded=0;" parent="1" vertex="1">
          <mxGeometry x="610" y="110" width="60" height="30" as="geometry" />
        </mxCell>
        <mxCell id="n0rDPUWQO1riLSEUtg_M-18" value="Page Requête marchant" style="swimlane;whiteSpace=wrap;html=1;" parent="1" vertex="1">
          <mxGeometry x="420" y="250" width="210" height="200" as="geometry" />
        </mxCell>
        <mxCell id="n0rDPUWQO1riLSEUtg_M-11" value="&lt;div&gt;&lt;b&gt;Formulaire&lt;/b&gt;&lt;/div&gt;&lt;div&gt;- username&lt;/div&gt;&lt;div&gt;- wallet address&lt;/div&gt;&lt;div&gt;- montant à rentrer par le marchant&lt;/div&gt;&lt;div&gt;- button envoyer&lt;/div&gt;&lt;div&gt;&lt;div&gt;&lt;br&gt;&lt;div&gt;&lt;br&gt;&lt;/div&gt;&lt;/div&gt;&lt;/div&gt;" style="rounded=1;whiteSpace=wrap;html=1;" parent="n0rDPUWQO1riLSEUtg_M-18" vertex="1">
          <mxGeometry x="20" y="60" width="180" height="120" as="geometry" />
        </mxCell>
        <mxCell id="n0rDPUWQO1riLSEUtg_M-21" value="Envoi email au client identifié contenant un lien vers la transaction metamask" style="rounded=1;whiteSpace=wrap;html=1;" parent="1" vertex="1">
          <mxGeometry x="470" y="525" width="150" height="85" as="geometry" />
        </mxCell>
        <mxCell id="n0rDPUWQO1riLSEUtg_M-22" style="edgeStyle=orthogonalEdgeStyle;rounded=0;orthogonalLoop=1;jettySize=auto;html=1;entryX=0.5;entryY=0;entryDx=0;entryDy=0;" parent="1" source="n0rDPUWQO1riLSEUtg_M-11" target="n0rDPUWQO1riLSEUtg_M-21" edge="1">
          <mxGeometry relative="1" as="geometry" />
        </mxCell>
        <mxCell id="n0rDPUWQO1riLSEUtg_M-23" value="Entrer le montant&lt;div&gt;Valider en cliquant sur le bouton envoyer&lt;/div&gt;" style="text;html=1;align=center;verticalAlign=middle;whiteSpace=wrap;rounded=0;" parent="1" vertex="1">
          <mxGeometry x="650" y="290" width="60" height="30" as="geometry" />
        </mxCell>
        <mxCell id="n0rDPUWQO1riLSEUtg_M-42" style="edgeStyle=orthogonalEdgeStyle;rounded=0;orthogonalLoop=1;jettySize=auto;html=1;entryX=0.5;entryY=0;entryDx=0;entryDy=0;" parent="1" source="n0rDPUWQO1riLSEUtg_M-24" target="n0rDPUWQO1riLSEUtg_M-41" edge="1">
          <mxGeometry relative="1" as="geometry" />
        </mxCell>
        <mxCell id="n0rDPUWQO1riLSEUtg_M-24" value="Le client valide la transaction sur metamask" style="rounded=1;whiteSpace=wrap;html=1;" parent="1" vertex="1">
          <mxGeometry x="210" y="542.5" width="130" height="87.5" as="geometry" />
        </mxCell>
        <mxCell id="n0rDPUWQO1riLSEUtg_M-25" style="edgeStyle=orthogonalEdgeStyle;rounded=0;orthogonalLoop=1;jettySize=auto;html=1;entryX=0.992;entryY=0.4;entryDx=0;entryDy=0;entryPerimeter=0;" parent="1" source="n0rDPUWQO1riLSEUtg_M-21" target="n0rDPUWQO1riLSEUtg_M-24" edge="1">
          <mxGeometry relative="1" as="geometry" />
        </mxCell>
        <mxCell id="n0rDPUWQO1riLSEUtg_M-27" value="Page client" style="swimlane;whiteSpace=wrap;html=1;" parent="1" vertex="1">
          <mxGeometry x="170" y="467.5" width="200" height="200" as="geometry" />
        </mxCell>
        <mxCell id="n0rDPUWQO1riLSEUtg_M-30" style="edgeStyle=orthogonalEdgeStyle;rounded=0;orthogonalLoop=1;jettySize=auto;html=1;" parent="1" target="n0rDPUWQO1riLSEUtg_M-11" edge="1">
          <mxGeometry relative="1" as="geometry">
            <mxPoint x="730" y="330" as="sourcePoint" />
          </mxGeometry>
        </mxCell>
        <mxCell id="n0rDPUWQO1riLSEUtg_M-38" style="edgeStyle=orthogonalEdgeStyle;rounded=0;orthogonalLoop=1;jettySize=auto;html=1;entryX=1;entryY=0.5;entryDx=0;entryDy=0;" parent="1" source="n0rDPUWQO1riLSEUtg_M-37" target="n0rDPUWQO1riLSEUtg_M-21" edge="1">
          <mxGeometry relative="1" as="geometry" />
        </mxCell>
        <mxCell id="n0rDPUWQO1riLSEUtg_M-37" value="Client" style="shape=umlActor;verticalLabelPosition=bottom;verticalAlign=top;html=1;outlineConnect=0;" parent="1" vertex="1">
          <mxGeometry x="735" y="537.5" width="30" height="60" as="geometry" />
        </mxCell>
        <mxCell id="n0rDPUWQO1riLSEUtg_M-39" value="Marchant" style="shape=umlActor;verticalLabelPosition=bottom;verticalAlign=top;html=1;outlineConnect=0;" parent="1" vertex="1">
          <mxGeometry x="740" y="275" width="30" height="60" as="geometry" />
        </mxCell>
        <mxCell id="n0rDPUWQO1riLSEUtg_M-40" value="clic sur le lien" style="text;html=1;align=center;verticalAlign=middle;whiteSpace=wrap;rounded=0;" parent="1" vertex="1">
          <mxGeometry x="660" y="520" width="60" height="30" as="geometry" />
        </mxCell>
        <mxCell id="n0rDPUWQO1riLSEUtg_M-41" value="facture emise et envoyer en base de donnée dans la table &quot;bills&quot;" style="rounded=1;whiteSpace=wrap;html=1;" parent="1" vertex="1">
          <mxGeometry x="202.5" y="750" width="145" height="80" as="geometry" />
        </mxCell>
        <mxCell id="n0rDPUWQO1riLSEUtg_M-43" value="Page client" style="swimlane;whiteSpace=wrap;html=1;" parent="1" vertex="1">
          <mxGeometry x="450" y="750" width="200" height="200" as="geometry" />
        </mxCell>
        <mxCell id="n0rDPUWQO1riLSEUtg_M-44" value="Afficher la liste des factures du client" style="rounded=1;whiteSpace=wrap;html=1;" parent="n0rDPUWQO1riLSEUtg_M-43" vertex="1">
          <mxGeometry x="40" y="70" width="130" height="70" as="geometry" />
        </mxCell>
        <mxCell id="n0rDPUWQO1riLSEUtg_M-45" style="edgeStyle=orthogonalEdgeStyle;rounded=0;orthogonalLoop=1;jettySize=auto;html=1;entryX=0.992;entryY=0.617;entryDx=0;entryDy=0;entryPerimeter=0;" parent="1" source="n0rDPUWQO1riLSEUtg_M-44" target="n0rDPUWQO1riLSEUtg_M-41" edge="1">
          <mxGeometry relative="1" as="geometry" />
        </mxCell>
        <mxCell id="n0rDPUWQO1riLSEUtg_M-46" value="get" style="text;html=1;align=center;verticalAlign=middle;whiteSpace=wrap;rounded=0;" parent="1" vertex="1">
          <mxGeometry x="384" y="760" width="60" height="30" as="geometry" />
        </mxCell>
        <mxCell id="n0rDPUWQO1riLSEUtg_M-48" value="&lt;h1 style=&quot;margin-top: 0px;&quot;&gt;Scenario: Effectuer un paiement crypto via NFC&lt;/h1&gt;" style="text;html=1;whiteSpace=wrap;overflow=hidden;rounded=0;" parent="1" vertex="1">
          <mxGeometry width="660" height="120" as="geometry" />
        </mxCell>
        <mxCell id="n0rDPUWQO1riLSEUtg_M-49" value="objet &lt;b&gt;ethereum&lt;/b&gt; de metamask dans le navigateur" style="rounded=1;whiteSpace=wrap;html=1;" parent="1" vertex="1">
          <mxGeometry x="500" y="650" width="130" height="72.5" as="geometry" />
        </mxCell>
        <mxCell id="n0rDPUWQO1riLSEUtg_M-50" style="edgeStyle=orthogonalEdgeStyle;rounded=0;orthogonalLoop=1;jettySize=auto;html=1;entryX=0.58;entryY=0.988;entryDx=0;entryDy=0;entryPerimeter=0;" parent="1" source="n0rDPUWQO1riLSEUtg_M-49" target="n0rDPUWQO1riLSEUtg_M-21" edge="1">
          <mxGeometry relative="1" as="geometry" />
        </mxCell>
      </root>
    </mxGraphModel>
  </diagram>
</mxfile>
